<svg width="433" height="433" viewBox="0 0 433 433" fill="none" xmlns="http://www.w3.org/2000/svg">
<path d="M433 0H0V433H433V0Z" fill="#FCBE0E"/>
<path d="M424.366 8.63397H8.63379V424.366H424.366V8.63397Z" fill="black"/>
<path d="M424.367 8.63397H8.63477V424.366H424.367V8.63397Z" fill="#2F343E"/>
<path d="M88.5913 139.209C83.5947 136.571 79.4188 132.611 76.5193 127.761C73.642 122.72 72.1287 117.016 72.1287 111.212C72.1287 105.407 73.642 99.7034 76.5193 94.6624C79.4188 89.8126 83.5947 85.8524 88.5913 83.2139C93.9078 80.4143 99.8429 78.9968 105.851 79.0918C110.861 79.0177 115.832 79.9819 120.451 81.9236C124.695 83.7342 128.449 86.5237 131.406 90.064L122.183 98.5854C120.297 96.2818 117.916 94.4319 115.218 93.1727C112.52 91.9135 109.573 91.2772 106.595 91.311C103.005 91.2463 99.459 92.1178 96.3074 93.8397C93.3338 95.4725 90.8859 97.9173 89.2495 100.889C87.5885 104.067 86.721 107.6 86.721 111.186C86.721 114.772 87.5885 118.304 89.2495 121.482C90.8859 124.454 93.3338 126.899 96.3074 128.532C99.459 130.254 103.005 131.125 106.595 131.06C109.581 131.091 112.535 130.445 115.235 129.17C117.935 127.895 120.31 126.025 122.183 123.699L131.406 132.221C128.459 135.818 124.686 138.65 120.408 140.474C115.773 142.415 110.789 143.382 105.764 143.314C99.7862 143.407 93.8809 141.996 88.5913 139.209Z" fill="#FCBE0E"/>
<path d="M180.751 128.956H151.914L146.406 142.275H131.684L159.396 80.1569H173.598L201.371 142.275H186.251L180.751 128.956ZM176.222 118.044L166.376 94.264L156.521 118.044H176.222Z" fill="white"/>
<path d="M247.391 142.275L235.414 124.955H222.19V142.275H207.84V80.1569H234.686C239.605 80.0394 244.492 80.9754 249.019 82.9022C252.894 84.5152 256.183 87.2759 258.444 90.8134C260.704 94.3509 261.827 98.4956 261.662 102.69C261.83 106.881 260.691 111.02 258.402 114.534C256.114 118.048 252.789 120.764 248.889 122.305L262.823 142.275H247.391ZM243.753 94.6451C241.508 92.7803 238.225 91.8479 233.907 91.8479H222.19V113.498H233.907C238.225 113.498 241.508 112.554 243.753 110.666C245.999 108.778 247.125 106.114 247.131 102.673C247.131 99.1974 246.005 96.5272 243.753 94.6624V94.6451Z" fill="white"/>
<path d="M88.6777 245.658C83.6618 243.008 79.4685 239.033 76.5537 234.166C73.6797 229.159 72.1675 223.486 72.1675 217.712C72.1675 211.939 73.6797 206.266 76.5537 201.258C79.4657 196.389 83.6597 192.414 88.6777 189.767C94.0505 186.937 100.047 185.502 106.119 185.592C112.174 185.499 118.155 186.935 123.508 189.767C128.573 192.47 132.809 196.499 135.762 201.422C138.715 206.346 140.275 211.98 140.275 217.721C140.275 223.462 138.715 229.096 135.762 234.02C132.809 238.943 128.573 242.972 123.508 245.675C118.154 248.504 112.173 249.937 106.119 249.841C100.047 249.929 94.0497 248.49 88.6777 245.658ZM116.043 235.05C118.959 233.385 121.357 230.945 122.971 228C124.632 224.822 125.5 221.29 125.5 217.704C125.5 214.118 124.632 210.585 122.971 207.407C121.357 204.463 118.959 202.023 116.043 200.358C112.989 198.69 109.564 197.816 106.084 197.816C102.604 197.816 99.1798 198.69 96.1253 200.358C93.205 202.017 90.8057 204.458 89.1973 207.407C87.5363 210.585 86.6688 214.118 86.6688 217.704C86.6688 221.29 87.5363 224.822 89.1973 228C90.8057 230.949 93.205 233.39 96.1253 235.05C99.1798 236.717 102.604 237.591 106.084 237.591C109.564 237.591 112.989 236.717 116.043 235.05Z" fill="#FCBE0E"/>
<path d="M207.901 186.64V248.759H196.106L165.129 211.044V248.759H150.936V186.64H162.808L193.69 224.355V186.64H207.901Z" fill="white"/>
<path d="M82.2007 354.324C78.2319 353.286 74.4888 351.524 71.1592 349.128L76.0348 338.303C78.9374 340.371 82.1538 341.959 85.5608 343.005C89.1106 344.172 92.8223 344.771 96.5589 344.781C100.646 344.781 103.663 344.174 105.609 342.962C106.49 342.499 107.229 341.804 107.746 340.953C108.264 340.102 108.539 339.126 108.544 338.13C108.555 337.424 108.405 336.724 108.105 336.085C107.805 335.446 107.363 334.883 106.812 334.441C105.498 333.377 103.989 332.579 102.37 332.094C100.569 331.516 98.1293 330.864 95.0521 330.137C91.1132 329.252 87.232 328.127 83.4304 326.768C80.4134 325.658 77.7304 323.794 75.6364 321.355C73.4772 318.867 72.3976 315.553 72.3976 311.414C72.369 307.924 73.3953 304.507 75.342 301.61C77.5507 298.492 80.6202 296.085 84.1752 294.682C88.1068 292.95 92.9131 292.084 98.594 292.084C102.511 292.081 106.415 292.558 110.216 293.505C113.723 294.334 117.078 295.71 120.157 297.584L115.724 308.504C110.512 305.396 104.575 303.712 98.5074 303.62C94.4661 303.62 91.4928 304.272 89.5876 305.577C88.7014 306.11 87.9693 306.864 87.4636 307.766C86.9579 308.668 86.696 309.687 86.7039 310.721C86.7039 312.851 87.8124 314.433 90.0293 315.466C93.3015 316.834 96.7054 317.861 100.187 318.532C104.127 319.427 108.01 320.551 111.818 321.901C114.817 323.002 117.496 324.833 119.612 327.227C121.777 329.652 122.856 332.934 122.851 337.073C122.877 340.542 121.84 343.936 119.88 346.798C117.636 349.918 114.538 352.323 110.961 353.726C106.367 355.567 101.446 356.451 96.4983 356.324C91.6618 356.338 86.8479 355.664 82.2007 354.324Z" fill="#FCBE0E"/>
<path d="M173.563 343.672H144.716L139.217 356.982H124.495L152.207 294.864H166.41L194.182 356.982H179.062L173.563 343.672ZM169.034 332.76L159.187 308.971L149.332 332.76H169.034Z" fill="white"/>
<path d="M200.626 293.132H215.002V343.542H246.178V355.25H200.626V293.132Z" fill="white"/>
<path d="M302.321 343.715V355.25H254.223V293.132H301.169V304.667H268.512V318.16H297.35V329.34H268.512V343.715H302.321Z" fill="white"/>
<path d="M88.5918 139.209C83.5952 136.571 79.4193 132.611 76.5198 127.761C73.6425 122.72 72.1292 117.016 72.1292 111.212C72.1292 105.407 73.6425 99.7034 76.5198 94.6624C79.4193 89.8126 83.5952 85.8524 88.5918 83.2139C93.9082 80.4143 99.8434 78.9968 105.851 79.0918C110.861 79.0177 115.833 79.9819 120.452 81.9236C124.695 83.7342 128.449 86.5237 131.407 90.064L122.184 98.5854C120.297 96.2818 117.917 94.4319 115.219 93.1727C112.52 91.9135 109.573 91.2772 106.596 91.311C103.005 91.2463 99.4595 92.1178 96.3079 93.8397C93.3342 95.4725 90.8864 97.9173 89.25 100.889C87.589 104.067 86.7215 107.6 86.7215 111.186C86.7215 114.772 87.589 118.304 89.25 121.482C90.8864 124.454 93.3342 126.899 96.3079 128.532C99.4595 130.254 103.005 131.125 106.596 131.06C109.582 131.091 112.535 130.445 115.235 129.17C117.935 127.895 120.311 126.025 122.184 123.699L131.407 132.221C128.46 135.818 124.686 138.65 120.409 140.474C115.774 142.415 110.789 143.382 105.765 143.314C99.7867 143.407 93.8814 141.996 88.5918 139.209Z" fill="#FCBE0E"/>
<path d="M180.752 128.956H151.914L146.407 142.275H131.685L159.397 80.1569H173.599L201.372 142.275H186.251L180.752 128.956ZM176.223 118.044L166.377 94.264L156.521 118.044H176.223Z" fill="white"/>
<path d="M247.391 142.275L235.414 124.955H222.19V142.275H207.84V80.1569H234.686C239.605 80.0394 244.492 80.9754 249.019 82.9022C252.894 84.5152 256.183 87.2759 258.444 90.8134C260.704 94.3509 261.827 98.4956 261.662 102.69C261.83 106.881 260.691 111.02 258.402 114.534C256.114 118.048 252.789 120.764 248.889 122.305L262.823 142.275H247.391ZM243.753 94.6451C241.508 92.7803 238.225 91.8479 233.907 91.8479H222.19V113.498H233.907C238.225 113.498 241.508 112.554 243.753 110.666C245.999 108.778 247.125 106.114 247.131 102.673C247.131 99.1974 246.005 96.5272 243.753 94.6624V94.6451Z" fill="white"/>
<path d="M88.6784 245.658C83.6625 243.008 79.4692 239.033 76.5544 234.166C73.6805 229.159 72.1682 223.486 72.1682 217.712C72.1682 211.939 73.6805 206.266 76.5544 201.258C79.4664 196.389 83.6604 192.414 88.6784 189.767C94.0512 186.937 100.048 185.502 106.12 185.592C112.175 185.499 118.156 186.935 123.509 189.767C128.574 192.47 132.809 196.499 135.763 201.422C138.716 206.346 140.276 211.98 140.276 217.721C140.276 223.462 138.716 229.096 135.763 234.02C132.809 238.943 128.574 242.972 123.509 245.675C118.155 248.504 112.174 249.937 106.12 249.841C100.047 249.929 94.0504 248.49 88.6784 245.658ZM116.044 235.05C118.96 233.385 121.358 230.945 122.972 228C124.633 224.822 125.5 221.29 125.5 217.704C125.5 214.118 124.633 210.585 122.972 207.407C121.358 204.463 118.96 202.023 116.044 200.358C112.989 198.69 109.565 197.816 106.085 197.816C102.605 197.816 99.1805 198.69 96.126 200.358C93.2057 202.017 90.8064 204.458 89.198 207.407C87.537 210.585 86.6695 214.118 86.6695 217.704C86.6695 221.29 87.537 224.822 89.198 228C90.8064 230.949 93.2057 233.39 96.126 235.05C99.1805 236.717 102.605 237.591 106.085 237.591C109.565 237.591 112.989 236.717 116.044 235.05Z" fill="#FCBE0E"/>
<path d="M207.9 186.64V248.759H196.105L165.128 211.044V248.759H150.935V186.64H162.807L193.689 224.355V186.64H207.9Z" fill="white"/>
<path d="M82.2004 354.324C78.2317 353.286 74.4885 351.524 71.1589 349.128L76.0345 338.303C78.9371 340.371 82.1535 341.959 85.5605 343.005C89.1103 344.172 92.8221 344.771 96.5587 344.781C100.646 344.781 103.663 344.174 105.608 342.962C106.49 342.499 107.229 341.804 107.746 340.953C108.263 340.102 108.539 339.126 108.544 338.13C108.555 337.424 108.405 336.724 108.105 336.085C107.805 335.446 107.362 334.883 106.812 334.441C105.498 333.377 103.989 332.579 102.37 332.094C100.568 331.516 98.129 330.864 95.0519 330.137C91.1129 329.252 87.2318 328.127 83.4301 326.768C80.4132 325.658 77.7302 323.794 75.6362 321.355C73.4769 318.867 72.3973 315.553 72.3973 311.414C72.3687 307.924 73.395 304.507 75.3417 301.61C77.5505 298.492 80.62 296.085 84.1749 294.682C88.1065 292.95 92.9128 292.084 98.5938 292.084C102.511 292.081 106.414 292.558 110.216 293.505C113.723 294.334 117.078 295.71 120.157 297.584L115.723 308.504C110.511 305.396 104.575 303.712 98.5072 303.62C94.4659 303.62 91.4926 304.272 89.5874 305.577C88.7011 306.11 87.969 306.864 87.4633 307.766C86.9576 308.668 86.6958 309.687 86.7036 310.721C86.7036 312.851 87.8121 314.433 90.0291 315.466C93.3012 316.834 96.7051 317.861 100.187 318.532C104.127 319.427 108.01 320.551 111.818 321.901C114.817 323.002 117.495 324.833 119.612 327.227C121.777 329.652 122.856 332.934 122.85 337.073C122.876 340.542 121.84 343.936 119.88 346.798C117.635 349.918 114.538 352.323 110.96 353.726C106.366 355.567 101.445 356.451 96.4981 356.324C91.6615 356.338 86.8476 355.664 82.2004 354.324Z" fill="#FCBE0E"/>
<path d="M173.563 343.672H144.716L139.217 356.982H124.495L152.207 294.864H166.41L194.182 356.982H179.062L173.563 343.672ZM169.034 332.76L159.187 308.971L149.332 332.76H169.034Z" fill="white"/>
<path d="M200.626 293.132H215.002V343.542H246.178V355.25H200.626V293.132Z" fill="white"/>
<path d="M302.321 343.715V355.25H254.223V293.132H301.169V304.667H268.512V318.16H297.35V329.34H268.512V343.715H302.321Z" fill="white"/>
</svg>
